inDegrees=yes
name=ik_data_2024_11_07_18_20
DataType=double
version=3
OpenSimVersion=4.5.1
endheader
time	pelvis_tilt	pelvis_list	pelvis_rotation	pelvis_tx	pelvis_ty	pelvis_tz	hip_flexion_r	hip_adduction_r	hip_rotation_r	knee_angle_r	knee_angle_r_beta	ankle_angle_r	subtalar_angle_r	mtp_angle_r	hip_flexion_l	hip_adduction_l	hip_rotation_l	knee_angle_l	knee_angle_l_beta	ankle_angle_l	subtalar_angle_l	mtp_angle_l	lumbar_extension	lumbar_bending	lumbar_rotation	arm_flex_r	arm_add_r	arm_rot_r	elbow_flex_r	pro_sup_r	wrist_flex_r	wrist_dev_r	arm_flex_l	arm_add_l	arm_rot_l	elbow_flex_l	pro_sup_l	wrist_flex_l	wrist_dev_l
0	-0.009670525970516909	0.001399105882708631	-8.579946160883965	0	0.9399999999999999	0	0.2868935524047219	-0.01002063488628902	-0.08407629640032888	0.5373987125214137	0.009379376929477146	-5.151921830443839	0	0	0.2868459352527865	-0.01168025944586824	-0.08717182195561053	0.5365403593189207	0.009364395839948607	-5.151921830443839	0	0	0	0	0	0	-11.0448023759026	0	75.00374649263681	45.10025129088322	0	0	0	-11.0448023759026	0	75.00374649263681	45.10025129088322	0	0
0.04352	-0.03421140643005413	0.07354859514394384	-8.076561063143496	0	0.9399999999999999	0	0.1461188370134369	-0.09903178761342704	-0.5763326447192396	0.4819969885573713	0.008412434435023562	-5.151721749950605	0	0	0.3312303186499823	0.06452646831333125	0.4157818455863472	0.5325344490093359	0.009294479515506767	-5.151721749950605	0	0	0	0	0	0	-11.04540605149899	0	75.00374543890635	45.10017065663914	0	0	0	-11.04540605149899	0	75.00374543890635	45.10017065663914	0	0
0.10616	0.1219041903640328	0.1258404087182157	-7.697974756533318	0	0.9399999999999999	0	-0.07895435484005871	-0.1985136644910108	-0.9742877352238914	0.5395662697665381	0.009417207940130026	-5.151516003258173	0	0	0.1741213565739536	0.1359105689064253	0.8014031541973445	0.5323325651387109	0.00929095597725769	-5.151516003258173	0	0	0	0	0	0	-11.04603486705193	0	75.00374434279104	45.10008728518088	0	0	0	-11.04603486705193	0	75.00374434279104	45.10008728518088	0	0
0.13085	0.2167163456219	0.08741228408560382	-7.977974755382467	0	0.9399999999999999	0	-0.1830073824488346	-0.1533459083672032	-0.700997817960248	0.5608932786830244	0.0097894344653249	-5.151289689120512	0	0	0.06700776633143486	0.1092819772138521	0.5211086653535059	0.5197812260937049	0.009071893785388216	-5.151289689120512	0	0	0	0	0	0	-11.04671726100886	0	75.00374314990007	45.09999596918571	0	0	0	-11.04671726100886	0	75.00374314990007	45.09999596918571	0	0
0.17674	0.2379160609581698	0.08762022866557803	-7.982507481269002	0	0.9399999999999999	0	-0.131601012323345	-0.1332313603967878	-0.7052004087691769	0.5607837141812551	0.009787522204025718	-5.151242687257969	0	0	0.0498311088058036	0.1181071348355491	0.5128266254577859	0.5396914840052583	0.009419393340866071	-5.151242687257969	0	0	0	0	0	0	-11.04685955379644	0	75.00374290122959	45.09997696896918	0	0	0	-11.04685955379644	0	75.00374290122959	45.09997696896918	0	0
0.226	0.1310826136870072	0.09535522472360886	-7.924424211199761	0	0.9399999999999999	0	0.02019042399871835	-0.1159588070231059	-0.7520531608327349	0.543072545511425	0.009478403996361118	-5.151086643261412	0	0	0.1476158665326915	0.1045258093149455	0.5767083410811801	0.5111579566544444	0.008921389341386513	-5.151086643261412	0	0	0	0	0	0	-11.04732838549083	0	75.0037420786382	45.09991389659135	0	0	0	-11.04732838549083	0	75.0037420786382	45.09991389659135	0	0
0.25866	0.1015734696282256	0.07666859586326609	-8.051432580433969	0	0.9399999999999999	0	0.1394976557648714	-0.04643977116603356	-0.6154721179972983	0.5275615819008601	0.009207686611199735	-5.150938726812299	0	0	0.1690543344305184	0.08061138433407822	0.4542454810543813	0.5052211575697344	0.008817772650328938	-5.150938726812299	0	0	0	0	0	0	-11.04776719382263	0	75.00374130716665	45.09985438667356	0	0	0	-11.04776719382263	0	75.00374130716665	45.09985438667356	0	0
0.30747	-0.05105475998406939	0.06107786578468542	-8.167873489236419	0	0.9399999999999999	0	0.1630045069048019	0.02217863833188898	-0.4993615559524199	0.5005960960534652	0.00873705009876276	-5.150736669743077	0	0	0.3232191719113462	0.04450732149666294	0.3342878850003772	0.5098193619981404	0.008898026457284406	-5.150736669743077	0	0	0	0	0	0	-11.04836874247831	0	75.00374025092437	45.09977304257971	0	0	0	-11.04836874247831	0	75.00374025092437	45.09977304257971	0	0
0.3585	0.08813977574364282	0.05944769945123105	-8.174293109884871	0	0.9399999999999999	0	-0.09553256582890576	-0.002848759442525265	-0.5007124019745924	0.4934827213824661	0.008612898289825857	-5.149735117100045	0	0	0.1826975629023841	0.05782895184287608	0.3239094186501437	0.5112945869654887	0.00892377399017226	-5.149735117100045	0	0	0	0	0	0	-11.05154033623358	0	75.00373479854404	45.09936487256056	0	0	0	-11.05154033623358	0	75.00373479854404	45.09936487256056	0	0
0.40577	0.2205348577630393	0.07005994151985924	-8.123885314479367	0	0.9399999999999999	0	-0.3725483019439911	-0.08481988584108829	-0.5519527954668659	0.4944275180184036	0.008629388101884732	-5.149514942307386	0	0	0.05935847077717582	0.08891343539438525	0.3760741503766303	0.5182930330843334	0.009045919917469518	-5.149514942307386	0	0	0	0	0	0	-11.05222688633407	0	75.00373360540988	45.09927498337166	0	0	0	-11.05222688633407	0	75.00373360540988	45.09927498337166	0	0
0.4444	0.2064483348525403	0.1333616725114018	-7.650331956600358	0	0.9399999999999999	0	-0.301138214161226	-0.1230391879517587	-1.022265003874209	0.4991914874225623	0.008712535053451573	-5.149324405029946	0	0	0.08519535156623084	0.1533395306144116	0.8507325082136719	0.5261037789957541	0.009182243150660496	-5.149324405029946	0	0	0	0	0	0	-11.05280942467795	0	75.00373258893148	45.09919764851231	0	0	0	-11.05280942467795	0	75.00373258893148	45.09919764851231	0	0
0.49301	0.1098803524363226	0.05577628416369779	-8.223118993085929	0	0.9399999999999999	0	-0.1590601648269007	0.03312950735515837	-0.4423808036991801	0.5015504232619069	0.008753706250691433	-5.149127174746585	0	0	0.162934550315274	0.06376946491336534	0.2759374027084447	0.5115975223577267	0.008929061210187635	-5.149127174746585	0	0	0	0	0	0	-11.05341453962186	0	75.0037315344187	45.09911754784576	0	0	0	-11.05341453962186	0	75.0037315344187	45.09911754784576	0	0
0.54031	0.1296209731624305	0.01011294001996067	-8.520895282120247	0	0.9399999999999999	0	-0.2377719575486394	0.1396909976301957	-0.1414881053200583	0.4478777376629028	0.007816941168601066	-5.148894224452157	0	0	0.1407331734341602	0.01974527414715545	-0.02029989101559175	0.5147122521916367	0.008983423501099461	-5.148894224452157	0	0	0	0	0	0	-11.05412184785668	0	75.00373029630144	45.09902304195436	0	0	0	-11.05412184785668	0	75.00373029630144	45.09902304195436	0	0
0.57574	0.1811126112231536	0.02063225531693692	-8.451284689647014	0	0.9399999999999999	0	-0.3930250223378953	0.111436646448104	-0.2180374325072136	0.4683571048518173	0.00817437355477252	-5.147643949294787	0	0	0.08847975177124624	0.03861855482170592	0.04984033526004279	0.5139152127559157	0.008969512538677889	-5.147643949294787	0	0	0	0	0	0	-11.0577179173116	0	75.00372388000905	45.0985207759988	0	0	0	-11.0577179173116	0	75.00372388000905	45.0985207759988	0	0
0.62629	0.2285118026432748	0.155571594513712	-7.520819437309378	0	0.9399999999999999	0	-0.5067234105984977	0.03073657989667828	-1.154560998707206	0.4864686934011528	0.008490480407724928	-5.147426031634773	0	0	0.071207323929873	0.1801107024854749	0.9784144894666716	0.5302117060567149	0.009253940003306035	-5.147426031634773	0	0	0	0	0	0	-11.05839354810446	0	75.00372270440981	45.09843188568721	0	0	0	-11.05839354810446	0	75.00372270440981	45.09843188568721	0	0
0.6903	0.168407597352813	0.2009761734532213	-7.168293413578382	0	0.9399999999999999	0	-0.5078186931491026	-0.01073513887335323	-1.51339349695293	0.4914746780915402	0.008577851322876617	-5.147251312200755	0	0	0.1441966672585482	0.2171127982384924	1.334835934443846	0.5315229868824565	0.009276826171133496	-5.147251312200755	0	0	0	0	0	0	-11.0589424546503	0	75.00372175057409	45.09836020998705	0	0	0	-11.0589424546503	0	75.00372175057409	45.09836020998705	0	0
0.70948	0.04747643201825797	0.2199823367487166	-7.021645084055335	0	0.9399999999999999	0	-0.4214893812977346	0.038197454716994	-1.639508155175295	0.4642631571308452	0.008102920687637039	-5.147055079362287	0	0	0.247464160808195	0.2300099937568751	1.471682255963574	0.516498443672495	0.009014598423511509	-5.147055079362287	0	0	0	0	0	0	-11.05955824418581	0	75.00372067867399	45.09827962932282	0	0	0	-11.05955824418581	0	75.00372067867399	45.09827962932282	0	0
0.75926	0.03196651271384808	0.2268296746193504	-6.989979333539673	0	0.9399999999999999	0	-0.4517857997717297	0.06621361889869856	-1.66967867418126	0.4721820392609625	0.008241131253884927	-5.146923229541944	0	0	0.2685179825972161	0.227278952176629	1.509141981036817	0.516619206341432	0.009016706129697957	-5.146923229541944	0	0	0	0	0	0	-11.0600090144129	0	75.00371991215016	45.09822433263472	0	0	0	-11.0600090144129	0	75.00371991215016	45.09822433263472	0	0
0.80975	0.08894230624519917	0.2747437389306468	-6.639818911131825	0	0.9399999999999999	0	-0.5531813468185699	0.09572213796077371	-2.031158513032296	0.5072701398303818	0.008853534137092193	-5.146695215440339	0	0	0.2130022426137417	0.2839575933584613	1.859045918375232	0.522986464035863	0.009127835740788721	-5.146695215440339	0	0	0	0	0	0	-11.06071339146589	0	75.00371868270909	45.09813120689579	0	0	0	-11.06071339146589	0	75.00371868270909	45.09813120689579	0	0
0.8554	0.06235481346711783	0.283122760639618	-6.620142434621449	0	0.9399999999999999	0	-0.6019936234605775	0.1344510503968261	-2.041337388682537	0.4741792548606861	0.008275989241972297	-5.146603853990065	0	0	0.2339656802798349	0.2840875150367383	1.880305091517663	0.5164012878355353	0.009012902734269032	-5.146603853990065	0	0	0	0	0	0	-11.06100376619054	0	75.00371817867527	45.09809355089405	0	0	0	-11.06100376619054	0	75.00371817867527	45.09809355089405	0	0
0.89891	0.05166407442645065	0.248058736977485	-6.853949092365694	0	0.9399999999999999	0	-0.5918585768250154	0.175988613624545	-1.804715440392335	0.4557467532219393	0.007954281398996916	-5.146408886487917	0	0	0.2432885963684831	0.2460573116232101	1.648022589905029	0.5137494166701989	0.008966618851095214	-5.146408886487917	0	0	0	0	0	0	-11.06161382358622	0	75.00371711568816	45.09801351543078	0	0	0	-11.06161382358622	0	75.00371711568816	45.09801351543078	0	0
0.94401	0.01053051469564468	0.3097201363117183	-6.399578426625343	0	0.9399999999999999	0	-0.5514170165993746	0.1415013330881195	-2.258432212550267	0.4340386978329924	0.007575404358254494	-5.146203190044936	0	0	0.2930017041615066	0.30828270750005	2.101502688545587	0.5193879631028614	0.009065030051371756	-5.146203190044936	0	0	0	0	0	0	-11.06225612600805	0	75.00371599681806	45.0979291833914	0	0	0	-11.06225612600805	0	75.00371599681806	45.0979291833914	0	0
0.99207	0.03853484159576149	0.3939401290001066	-5.804400047882247	0	0.9399999999999999	0	-0.557439193079219	0.09556286685703586	-2.859235825729357	0.4294664695197988	0.00749560392003636	-5.146002852171234	0	0	0.2698269365322223	0.3976656330102076	2.696573738293687	0.5234756744311051	0.009136374072920677	-5.146002852171234	0	0	0	0	0	0	-11.06288100179691	0	75.00371490842392	45.09784710062649	0	0	0	-11.06288100179691	0	75.00371490842392	45.09784710062649	0	0
1.04232	0.06243819026601186	0.4346425235084724	-5.500159987873566	0	0.9399999999999999	0	-0.6123422704766303	0.1188498376667059	-3.155840220323435	0.4025988908064873	0.007026676209450332	-5.145780510064162	0	0	0.2475390732144367	0.4433702715116333	2.999272527182643	0.5145452252838134	0.008980508331618519	-5.145780510064162	0	0	0	0	0	0	-11.06357752538027	0	75.00371369464457	45.09775575411491	0	0	0	-11.06357752538027	0	75.00371369464457	45.09775575411491	0	0
1.07489	0.0216021198720718	0.4482431544262334	-5.387384721444092	0	0.9399999999999999	0	-0.6445482743026162	0.1295384346732311	-3.274959641634566	0.4212146764516389	0.007351582961803724	-5.144982244089358	0	0	0.2894474866853282	0.4565063947616342	3.110907471112568	0.5143885237259939	0.008977773373491562	-5.144982244089358	0	0	0	0	0	0	-11.06600713430872	0	75.00370942716516	45.09743013048691	0	0	0	-11.06600713430872	0	75.00370942716516	45.09743013048691	0	0
1.14043	-0.02209162836195481	0.5525049253611325	-4.670023210709891	0	0.9399999999999999	0	-0.6404555160110906	0.04559875032522424	-4.007432983995459	0.4013203197812164	0.007004360935338756	-5.144764396831266	0	0	0.3384276364012153	0.55683481061042	3.826527952892973	0.5205046079643827	0.009084519180780778	-5.144764396831266	0	0	0	0	0	0	-11.06669252184123	0	75.00370823488153	45.09734055564329	0	0	0	-11.06669252184123	0	75.00370823488153	45.09734055564329	0	0
